<mxfile host="Electron" agent="Mozilla/5.0 (Windows NT 10.0; Win64; x64) AppleWebKit/537.36 (KHTML, like Gecko) draw.io/24.7.17 Chrome/128.0.6613.36 Electron/32.0.1 Safari/537.36" version="24.7.17">
  <diagram name="1 oldal" id="Ghkd28NUBnx_2Z-D6c8a">
    <mxGraphModel dx="472" dy="835" grid="1" gridSize="10" guides="1" tooltips="1" connect="1" arrows="1" fold="1" page="1" pageScale="1" pageWidth="827" pageHeight="1169" math="0" shadow="0">
      <root>
        <mxCell id="0" />
        <mxCell id="1" parent="0" />
        <mxCell id="jS4FJ0WYf3dUqRhWNFP8-1" value="Admin" style="rounded=0;whiteSpace=wrap;html=1;" parent="1" vertex="1">
          <mxGeometry x="350" y="310" width="120" height="30" as="geometry" />
        </mxCell>
        <mxCell id="jS4FJ0WYf3dUqRhWNFP8-2" value="Jegy" style="rounded=0;whiteSpace=wrap;html=1;" parent="1" vertex="1">
          <mxGeometry x="570" y="180" width="120" height="30" as="geometry" />
        </mxCell>
        <mxCell id="jS4FJ0WYf3dUqRhWNFP8-3" value="Vonat" style="rounded=0;whiteSpace=wrap;html=1;" parent="1" vertex="1">
          <mxGeometry x="570" y="310" width="120" height="30" as="geometry" />
        </mxCell>
        <mxCell id="jS4FJ0WYf3dUqRhWNFP8-5" value="Tag" style="rounded=0;whiteSpace=wrap;html=1;" parent="1" vertex="1">
          <mxGeometry x="130" y="180" width="120" height="30" as="geometry" />
        </mxCell>
        <mxCell id="jS4FJ0WYf3dUqRhWNFP8-6" value="Állomás" style="rounded=0;whiteSpace=wrap;html=1;" parent="1" vertex="1">
          <mxGeometry x="350" y="440" width="120" height="30" as="geometry" />
        </mxCell>
        <mxCell id="jS4FJ0WYf3dUqRhWNFP8-30" value="Vonat-Állomás" style="rounded=0;whiteSpace=wrap;html=1;" parent="1" vertex="1">
          <mxGeometry x="570" y="440" width="120" height="30" as="geometry" />
        </mxCell>
        <mxCell id="jS4FJ0WYf3dUqRhWNFP8-31" value="" style="group;rotation=-180;" parent="1" vertex="1" connectable="0">
          <mxGeometry x="470" y="445" width="100" height="20" as="geometry" />
        </mxCell>
        <mxCell id="jS4FJ0WYf3dUqRhWNFP8-32" value="" style="endArrow=none;html=1;rounded=0;" parent="jS4FJ0WYf3dUqRhWNFP8-31" edge="1">
          <mxGeometry width="50" height="50" relative="1" as="geometry">
            <mxPoint x="100" y="10" as="sourcePoint" />
            <mxPoint y="10" as="targetPoint" />
          </mxGeometry>
        </mxCell>
        <mxCell id="jS4FJ0WYf3dUqRhWNFP8-33" value="" style="endArrow=none;html=1;rounded=0;" parent="jS4FJ0WYf3dUqRhWNFP8-31" edge="1">
          <mxGeometry width="50" height="50" relative="1" as="geometry">
            <mxPoint x="100" as="sourcePoint" />
            <mxPoint x="86" y="10" as="targetPoint" />
          </mxGeometry>
        </mxCell>
        <mxCell id="jS4FJ0WYf3dUqRhWNFP8-34" value="" style="endArrow=none;html=1;rounded=0;" parent="jS4FJ0WYf3dUqRhWNFP8-31" edge="1">
          <mxGeometry width="50" height="50" relative="1" as="geometry">
            <mxPoint x="100" y="20" as="sourcePoint" />
            <mxPoint x="86" y="10" as="targetPoint" />
          </mxGeometry>
        </mxCell>
        <mxCell id="jS4FJ0WYf3dUqRhWNFP8-36" value="" style="group;rotation=-90;" parent="1" vertex="1" connectable="0">
          <mxGeometry x="580" y="380" width="100" height="20" as="geometry" />
        </mxCell>
        <mxCell id="jS4FJ0WYf3dUqRhWNFP8-37" value="" style="endArrow=none;html=1;rounded=0;" parent="jS4FJ0WYf3dUqRhWNFP8-36" edge="1">
          <mxGeometry width="50" height="50" relative="1" as="geometry">
            <mxPoint x="50" y="60" as="sourcePoint" />
            <mxPoint x="50" y="-40" as="targetPoint" />
          </mxGeometry>
        </mxCell>
        <mxCell id="jS4FJ0WYf3dUqRhWNFP8-38" value="" style="endArrow=none;html=1;rounded=0;" parent="jS4FJ0WYf3dUqRhWNFP8-36" edge="1">
          <mxGeometry width="50" height="50" relative="1" as="geometry">
            <mxPoint x="60" y="60" as="sourcePoint" />
            <mxPoint x="50" y="46" as="targetPoint" />
          </mxGeometry>
        </mxCell>
        <mxCell id="jS4FJ0WYf3dUqRhWNFP8-39" value="" style="endArrow=none;html=1;rounded=0;" parent="jS4FJ0WYf3dUqRhWNFP8-36" edge="1">
          <mxGeometry width="50" height="50" relative="1" as="geometry">
            <mxPoint x="40" y="60" as="sourcePoint" />
            <mxPoint x="50" y="46" as="targetPoint" />
          </mxGeometry>
        </mxCell>
        <mxCell id="jS4FJ0WYf3dUqRhWNFP8-50" value="" style="group;rotation=0;" parent="1" vertex="1" connectable="0">
          <mxGeometry x="470" y="185" width="100" height="20" as="geometry" />
        </mxCell>
        <mxCell id="jS4FJ0WYf3dUqRhWNFP8-51" value="" style="endArrow=none;html=1;rounded=0;" parent="jS4FJ0WYf3dUqRhWNFP8-50" edge="1">
          <mxGeometry width="50" height="50" relative="1" as="geometry">
            <mxPoint y="10" as="sourcePoint" />
            <mxPoint x="100" y="10" as="targetPoint" />
          </mxGeometry>
        </mxCell>
        <mxCell id="jS4FJ0WYf3dUqRhWNFP8-52" value="" style="endArrow=none;html=1;rounded=0;" parent="jS4FJ0WYf3dUqRhWNFP8-50" edge="1">
          <mxGeometry width="50" height="50" relative="1" as="geometry">
            <mxPoint y="20" as="sourcePoint" />
            <mxPoint x="14" y="10" as="targetPoint" />
          </mxGeometry>
        </mxCell>
        <mxCell id="jS4FJ0WYf3dUqRhWNFP8-53" value="" style="endArrow=none;html=1;rounded=0;" parent="jS4FJ0WYf3dUqRhWNFP8-50" edge="1">
          <mxGeometry width="50" height="50" relative="1" as="geometry">
            <mxPoint as="sourcePoint" />
            <mxPoint x="14" y="10" as="targetPoint" />
          </mxGeometry>
        </mxCell>
        <mxCell id="jS4FJ0WYf3dUqRhWNFP8-63" value="" style="group;rotation=-90;" parent="1" vertex="1" connectable="0">
          <mxGeometry x="580" y="250" width="100" height="20" as="geometry" />
        </mxCell>
        <mxCell id="jS4FJ0WYf3dUqRhWNFP8-64" value="" style="endArrow=none;html=1;rounded=0;" parent="jS4FJ0WYf3dUqRhWNFP8-63" edge="1">
          <mxGeometry width="50" height="50" relative="1" as="geometry">
            <mxPoint x="50" y="60" as="sourcePoint" />
            <mxPoint x="50" y="-40" as="targetPoint" />
          </mxGeometry>
        </mxCell>
        <mxCell id="jS4FJ0WYf3dUqRhWNFP8-65" value="" style="endArrow=none;html=1;rounded=0;" parent="jS4FJ0WYf3dUqRhWNFP8-63" edge="1">
          <mxGeometry width="50" height="50" relative="1" as="geometry">
            <mxPoint x="60" y="60" as="sourcePoint" />
            <mxPoint x="50" y="46" as="targetPoint" />
          </mxGeometry>
        </mxCell>
        <mxCell id="jS4FJ0WYf3dUqRhWNFP8-66" value="" style="endArrow=none;html=1;rounded=0;" parent="jS4FJ0WYf3dUqRhWNFP8-63" edge="1">
          <mxGeometry width="50" height="50" relative="1" as="geometry">
            <mxPoint x="40" y="60" as="sourcePoint" />
            <mxPoint x="50" y="46" as="targetPoint" />
          </mxGeometry>
        </mxCell>
        <mxCell id="jS4FJ0WYf3dUqRhWNFP8-67" value="Tag-Jegy" style="rounded=0;whiteSpace=wrap;html=1;" parent="1" vertex="1">
          <mxGeometry x="350" y="180" width="120" height="30" as="geometry" />
        </mxCell>
        <mxCell id="jS4FJ0WYf3dUqRhWNFP8-73" value="" style="group;rotation=-180;" parent="1" vertex="1" connectable="0">
          <mxGeometry x="250" y="185" width="100" height="20" as="geometry" />
        </mxCell>
        <mxCell id="jS4FJ0WYf3dUqRhWNFP8-74" value="" style="endArrow=none;html=1;rounded=0;" parent="jS4FJ0WYf3dUqRhWNFP8-73" edge="1">
          <mxGeometry width="50" height="50" relative="1" as="geometry">
            <mxPoint x="100" y="10" as="sourcePoint" />
            <mxPoint y="10" as="targetPoint" />
          </mxGeometry>
        </mxCell>
        <mxCell id="jS4FJ0WYf3dUqRhWNFP8-75" value="" style="endArrow=none;html=1;rounded=0;" parent="jS4FJ0WYf3dUqRhWNFP8-73" edge="1">
          <mxGeometry width="50" height="50" relative="1" as="geometry">
            <mxPoint x="100" as="sourcePoint" />
            <mxPoint x="86" y="10" as="targetPoint" />
          </mxGeometry>
        </mxCell>
        <mxCell id="jS4FJ0WYf3dUqRhWNFP8-76" value="" style="endArrow=none;html=1;rounded=0;" parent="jS4FJ0WYf3dUqRhWNFP8-73" edge="1">
          <mxGeometry width="50" height="50" relative="1" as="geometry">
            <mxPoint x="100" y="20" as="sourcePoint" />
            <mxPoint x="86" y="10" as="targetPoint" />
          </mxGeometry>
        </mxCell>
        <mxCell id="Uv2U1Ff6jtWr_Uy6FhHP-2" value="" style="group;rotation=0;" vertex="1" connectable="0" parent="1">
          <mxGeometry x="470" y="315" width="100" height="20" as="geometry" />
        </mxCell>
        <mxCell id="Uv2U1Ff6jtWr_Uy6FhHP-3" value="" style="endArrow=none;html=1;rounded=0;" edge="1" parent="Uv2U1Ff6jtWr_Uy6FhHP-2">
          <mxGeometry width="50" height="50" relative="1" as="geometry">
            <mxPoint y="10" as="sourcePoint" />
            <mxPoint x="100" y="10" as="targetPoint" />
          </mxGeometry>
        </mxCell>
        <mxCell id="Uv2U1Ff6jtWr_Uy6FhHP-4" value="" style="endArrow=none;html=1;rounded=0;" edge="1" parent="Uv2U1Ff6jtWr_Uy6FhHP-2">
          <mxGeometry width="50" height="50" relative="1" as="geometry">
            <mxPoint y="20" as="sourcePoint" />
            <mxPoint x="14" y="10" as="targetPoint" />
          </mxGeometry>
        </mxCell>
        <mxCell id="Uv2U1Ff6jtWr_Uy6FhHP-5" value="" style="endArrow=none;html=1;rounded=0;" edge="1" parent="Uv2U1Ff6jtWr_Uy6FhHP-2">
          <mxGeometry width="50" height="50" relative="1" as="geometry">
            <mxPoint as="sourcePoint" />
            <mxPoint x="14" y="10" as="targetPoint" />
          </mxGeometry>
        </mxCell>
        <mxCell id="Uv2U1Ff6jtWr_Uy6FhHP-7" value="" style="group;rotation=90;" vertex="1" connectable="0" parent="1">
          <mxGeometry x="364" y="380" width="100" height="20" as="geometry" />
        </mxCell>
        <mxCell id="Uv2U1Ff6jtWr_Uy6FhHP-8" value="" style="endArrow=none;html=1;rounded=0;" edge="1" parent="Uv2U1Ff6jtWr_Uy6FhHP-7">
          <mxGeometry width="50" height="50" relative="1" as="geometry">
            <mxPoint x="50" y="-40" as="sourcePoint" />
            <mxPoint x="50" y="60" as="targetPoint" />
          </mxGeometry>
        </mxCell>
        <mxCell id="Uv2U1Ff6jtWr_Uy6FhHP-9" value="" style="endArrow=none;html=1;rounded=0;" edge="1" parent="Uv2U1Ff6jtWr_Uy6FhHP-7">
          <mxGeometry width="50" height="50" relative="1" as="geometry">
            <mxPoint x="40" y="-40" as="sourcePoint" />
            <mxPoint x="50" y="-26" as="targetPoint" />
          </mxGeometry>
        </mxCell>
        <mxCell id="Uv2U1Ff6jtWr_Uy6FhHP-10" value="" style="endArrow=none;html=1;rounded=0;" edge="1" parent="Uv2U1Ff6jtWr_Uy6FhHP-7">
          <mxGeometry width="50" height="50" relative="1" as="geometry">
            <mxPoint x="60" y="-40" as="sourcePoint" />
            <mxPoint x="50" y="-26" as="targetPoint" />
          </mxGeometry>
        </mxCell>
      </root>
    </mxGraphModel>
  </diagram>
</mxfile>
